<svg width="35" height="36" viewBox="0 0 35 36" fill="none" xmlns="http://www.w3.org/2000/svg">
<rect y="0.5" width="35" height="35" rx="10" fill="#EFF2FB"/>
<path d="M21.328 10.3436C22.3424 10.3466 23.3144 10.751 24.0317 11.4683C24.749 12.1856 25.1534 13.1576 25.1564 14.172V21.828C25.1534 22.8424 24.749 23.8144 24.0317 24.5317C23.3144 25.249 22.3424 25.6534 21.328 25.6564H13.672C12.6576 25.6534 11.6856 25.249 10.9683 24.5317C10.251 23.8144 9.84664 22.8424 9.84361 21.828V14.172C9.84664 13.1576 10.251 12.1856 10.9683 11.4683C11.6856 10.751 12.6576 10.3466 13.672 10.3436H21.328ZM21.328 8.8125H13.672C10.7242 8.8125 8.3125 11.2242 8.3125 14.172V21.828C8.3125 24.7758 10.7242 27.1875 13.672 27.1875H21.328C24.2758 27.1875 26.6875 24.7758 26.6875 21.828V14.172C26.6875 11.2242 24.2758 8.8125 21.328 8.8125Z" fill="#385AD2"/>
<path d="M22.4764 14.172C22.2493 14.172 22.0273 14.1046 21.8384 13.9785C21.6495 13.8523 21.5023 13.6729 21.4154 13.463C21.3285 13.2532 21.3057 13.0223 21.3501 12.7995C21.3944 12.5767 21.5037 12.3721 21.6644 12.2115C21.825 12.0509 22.0296 11.9415 22.2524 11.8972C22.4752 11.8529 22.7061 11.8756 22.9159 11.9625C23.1258 12.0495 23.3051 12.1967 23.4313 12.3855C23.5575 12.5744 23.6249 12.7964 23.6249 13.0236C23.6252 13.1745 23.5957 13.324 23.5381 13.4634C23.4805 13.6029 23.3959 13.7296 23.2892 13.8364C23.1825 13.9431 23.0558 14.0276 22.9163 14.0852C22.7768 14.1428 22.6273 14.1723 22.4764 14.172ZM17.5 14.9373C18.1057 14.9373 18.6979 15.117 19.2015 15.4535C19.7052 15.79 20.0977 16.2683 20.3295 16.828C20.5613 17.3876 20.622 18.0034 20.5038 18.5975C20.3856 19.1916 20.0939 19.7373 19.6656 20.1656C19.2373 20.5939 18.6916 20.8856 18.0975 21.0038C17.5034 21.1219 16.8876 21.0613 16.328 20.8295C15.7684 20.5977 15.29 20.2051 14.9535 19.7015C14.617 19.1978 14.4374 18.6057 14.4374 18C14.4382 17.188 14.7612 16.4095 15.3354 15.8353C15.9095 15.2612 16.688 14.9382 17.5 14.9373ZM17.5 13.4062C16.5914 13.4062 15.7033 13.6757 14.9479 14.1804C14.1924 14.6852 13.6036 15.4026 13.2559 16.242C12.9082 17.0814 12.8173 18.0051 12.9945 18.8962C13.1718 19.7873 13.6093 20.6058 14.2517 21.2483C14.8942 21.8907 15.7127 22.3282 16.6038 22.5055C17.4949 22.6827 18.4186 22.5917 19.258 22.2441C20.0974 21.8964 20.8148 21.3076 21.3196 20.5521C21.8243 19.7967 22.0938 18.9085 22.0938 18C22.0938 16.7816 21.6098 15.6132 20.7483 14.7517C19.8868 13.8902 18.7183 13.4062 17.5 13.4062Z" fill="#385AD2"/>
</svg>
