<svg width="76" height="76" viewBox="0 0 76 76" fill="none" xmlns="http://www.w3.org/2000/svg">
<g clip-path="url(#clip0_913_445)">
<mask id="mask0_913_445" style="mask-type:luminance" maskUnits="userSpaceOnUse" x="0" y="0" width="76" height="76">
<path d="M76 38C76 17.0132 58.9868 0 38 0C17.0132 0 0 17.0132 0 38C0 58.9868 17.0132 76 38 76C58.9868 76 76 58.9868 76 38Z" fill="white"/>
</mask>
<g mask="url(#mask0_913_445)">
<path d="M76 38C76 17.0132 58.9868 0 38 0C17.0132 0 0 17.0132 0 38C0 58.9868 17.0132 76 38 76C58.9868 76 76 58.9868 76 38Z" fill="white"/>
<mask id="mask1_913_445" style="mask-type:luminance" maskUnits="userSpaceOnUse" x="5" y="13" width="161" height="26">
<path d="M165.608 13.3181H5.06689V38.7962H165.608V13.3181Z" fill="white"/>
<path d="M5.32178 38.3619V13.6945H21.8941V17.8984H10.1163V24.2563H19.9138V28.1475H10.1163V38.3619H5.32178ZM30.2129 13.6945H35.0769L44.1448 38.3619H39.2113L36.9182 32.2124H28.302L26.0437 38.3619H21.1102L30.2129 13.6945ZM36.0497 28.8424L32.6449 18.6627L29.1011 28.8424H36.0497ZM47.3848 13.6945L54.0554 32.6641L60.6566 13.6945H65.6943L56.3485 38.3619H51.7277L42.3471 13.6945H47.3848ZM77.9042 38.5356C76.0976 38.5356 74.4531 38.1882 72.9708 37.4933C71.5116 36.7985 70.2492 35.8604 69.1838 34.6791C68.1415 33.4747 67.3308 32.1313 66.7518 30.649C66.1727 29.1435 65.8832 27.6032 65.8832 26.0282C65.8832 24.3837 66.1843 22.8203 66.7865 21.3379C67.4119 19.8324 68.2573 18.5006 69.3228 17.3425C70.4114 16.1612 71.6853 15.2347 73.1445 14.563C74.6268 13.8682 76.2482 13.5208 78.0085 13.5208C79.7919 13.5208 81.4133 13.8798 82.8725 14.5978C84.3548 15.3158 85.6172 16.277 86.6594 17.4814C87.7017 18.6859 88.5124 20.0292 89.0914 21.5116C89.6705 22.994 89.96 24.5227 89.96 26.0977C89.96 27.719 89.6589 29.2824 89.0567 30.7879C88.4545 32.2703 87.6091 33.6021 86.5205 34.7834C85.455 35.9415 84.1811 36.8564 82.6988 37.5281C81.2396 38.1998 79.6414 38.5356 77.9042 38.5356ZM70.7472 26.0282C70.7472 27.0936 70.9093 28.1243 71.2336 29.1203C71.5579 30.1163 72.0211 31.008 72.6233 31.7955C73.2487 32.5598 74.0015 33.1736 74.8816 33.6369C75.7849 34.0769 76.8041 34.297 77.939 34.297C79.0971 34.297 80.1278 34.0654 81.0311 33.6021C81.9344 33.1157 82.6872 32.4788 83.2894 31.6913C83.8916 30.8806 84.3433 29.9889 84.6444 29.0161C84.9686 28.0201 85.1308 27.0241 85.1308 26.0282C85.1308 24.9627 84.957 23.9436 84.6096 22.9708C84.2853 21.9748 83.8105 21.0947 83.1852 20.3304C82.583 19.5428 81.8302 18.9291 80.9269 18.489C80.0467 18.0257 79.0508 17.7941 77.939 17.7941C76.7577 17.7941 75.7154 18.0373 74.8121 18.5237C73.932 18.987 73.1908 19.6123 72.5886 20.3998C71.9864 21.1873 71.5231 22.0675 71.1989 23.0403C70.8978 24.0131 70.7472 25.0091 70.7472 26.0282ZM93.6378 38.3619V13.6945H104.547C105.682 13.6945 106.724 13.9261 107.674 14.3893C108.647 14.8526 109.481 15.4779 110.175 16.2654C110.893 17.0529 111.438 17.9331 111.808 18.9059C112.202 19.8787 112.399 20.8747 112.399 21.8938C112.399 22.9361 112.214 23.9436 111.843 24.9164C111.496 25.866 110.986 26.6999 110.314 27.4179C109.643 28.1359 108.855 28.6918 107.952 29.0856L113.58 38.3619H108.299L103.227 30.0931H98.4324V38.3619H93.6378ZM98.4324 25.8892H104.443C105.045 25.8892 105.578 25.7155 106.041 25.3681C106.504 24.9975 106.875 24.5111 107.153 23.9089C107.431 23.3067 107.57 22.635 107.57 21.8938C107.57 21.1063 107.408 20.423 107.083 19.844C106.759 19.2417 106.342 18.7669 105.833 18.4195C105.346 18.0721 104.813 17.8984 104.234 17.8984H98.4324V25.8892ZM116.743 38.3619V13.6945H121.538V38.3619H116.743ZM145.133 17.8984H137.246V38.3619H132.486V17.8984H124.6V13.6945H145.133V17.8984ZM165.323 34.158V38.3619H148.195V13.6945H165.01V17.8984H152.989V23.8394H163.377V27.7306H152.989V34.158H165.323Z" fill="black"/>
</mask>
<g mask="url(#mask1_913_445)">
<path d="M5.32152 38.3619H5.17676V38.5067H5.32152V38.3619ZM5.32152 13.6945V13.5498H5.17676V13.6945H5.32152ZM21.8939 13.6945H22.0386V13.5498H21.8939V13.6945ZM21.8939 17.8984V18.0432H22.0386V17.8984H21.8939ZM10.116 17.8984V17.7536H9.97127V17.8984H10.116ZM10.116 24.2563H9.97127V24.4011H10.116V24.2563ZM19.9135 24.2563H20.0583V24.1116H19.9135V24.2563ZM19.9135 28.1475V28.2923H20.0583V28.1475H19.9135ZM10.116 28.1475V28.0028H9.97127V28.1475H10.116ZM10.116 38.3619V38.5067H10.2608V38.3619H10.116ZM5.46628 38.3619V13.6945H5.17676V38.3619H5.46628ZM5.32152 13.8393H21.8939V13.5498H5.32152V13.8393ZM21.7491 13.6945V17.8984H22.0386V13.6945H21.7491ZM21.8939 17.7536H10.116V18.0432H21.8939V17.7536ZM9.97127 17.8984V24.2563H10.2608V17.8984H9.97127ZM10.116 24.4011H19.9135V24.1116H10.116V24.4011ZM19.7688 24.2563V28.1475H20.0583V24.2563H19.7688ZM19.9135 28.0028H10.116V28.2923H19.9135V28.0028ZM9.97127 28.1475V38.3619H10.2608V28.1475H9.97127ZM10.116 38.2172H5.32152V38.5067H10.116V38.2172ZM30.2126 13.6945V13.5498H30.1117L30.0768 13.6444L30.2126 13.6945ZM35.0766 13.6945L35.2125 13.6446L35.1777 13.5498H35.0766V13.6945ZM44.1445 38.3619V38.5067H44.3519L44.2804 38.312L44.1445 38.3619ZM39.211 38.3619L39.0754 38.4125L39.1105 38.5067H39.211V38.3619ZM36.918 32.2125L37.0536 32.1619L37.0184 32.0677H36.918V32.2125ZM28.3018 32.2125V32.0677H28.2007L28.1658 32.1625L28.3018 32.2125ZM26.0435 38.3619V38.5067H26.1445L26.1794 38.4119L26.0435 38.3619ZM21.11 38.3619L20.9742 38.3119L20.9022 38.5067H21.11V38.3619ZM36.0494 28.8424V28.9872H36.2505L36.1866 28.7965L36.0494 28.8424ZM32.6446 18.6627L32.7818 18.6169L32.6474 18.2146L32.508 18.6151L32.6446 18.6627ZM29.1008 28.8424L28.9642 28.7948L28.8972 28.9872H29.1008V28.8424ZM30.2126 13.8393H35.0766V13.5498H30.2126V13.8393ZM34.9407 13.7445L44.0086 38.4119L44.2804 38.312L35.2125 13.6446L34.9407 13.7445ZM44.1445 38.2172H39.211V38.5067H44.1445V38.2172ZM39.3466 38.3114L37.0536 32.1619L36.7823 32.263L39.0754 38.4125L39.3466 38.3114ZM36.918 32.0677H28.3018V32.3572H36.918V32.0677ZM28.1658 32.1625L25.9075 38.312L26.1794 38.4119L28.4377 32.2624L28.1658 32.1625ZM26.0435 38.2172H21.11V38.5067H26.0435V38.2172ZM21.2458 38.412L30.3484 13.7446L30.0768 13.6444L20.9742 38.3119L21.2458 38.412ZM36.1866 28.7965L32.7818 18.6169L32.5074 18.7086L35.9122 28.8883L36.1866 28.7965ZM32.508 18.6151L28.9642 28.7948L29.2375 28.89L32.7813 18.7104L32.508 18.6151ZM29.1008 28.9872H36.0494V28.6976H29.1008V28.9872ZM47.3846 13.6945L47.5211 13.6465L47.487 13.5498H47.3846V13.6945ZM54.0552 32.6641L53.9187 32.7122L54.0559 33.1026L54.1918 32.7117L54.0552 32.6641ZM60.6563 13.6945V13.5498H60.5534L60.5195 13.6469L60.6563 13.6945ZM65.694 13.6945L65.8294 13.7458L65.9037 13.5498H65.694V13.6945ZM56.3482 38.3619V38.5067H56.4481L56.4836 38.4132L56.3482 38.3619ZM51.7274 38.3619L51.5921 38.4133L51.6275 38.5067H51.7274V38.3619ZM42.3468 13.6945V13.5498H42.1369L42.2115 13.746L42.3468 13.6945ZM47.248 13.7425L53.9187 32.7122L54.1917 32.6161L47.5211 13.6465L47.248 13.7425ZM54.1918 32.7117L60.793 13.7421L60.5195 13.6469L53.9184 32.6165L54.1918 32.7117ZM60.6563 13.8393H65.694V13.5498H60.6563V13.8393ZM65.5587 13.6432L56.2129 38.3107L56.4836 38.4132L65.8294 13.7458L65.5587 13.6432ZM56.3482 38.2172H51.7274V38.5067H56.3482V38.2172ZM51.8628 38.3106L42.4822 13.6431L42.2115 13.746L51.5921 38.4133L51.8628 38.3106ZM42.3468 13.8393H47.3846V13.5498H42.3468V13.8393ZM72.9705 37.4934L72.9082 37.6241L72.909 37.6244L72.9705 37.4934ZM69.1835 34.6792L69.0741 34.7739L69.0749 34.775L69.076 34.7762L69.1835 34.6792ZM66.7515 30.649L66.6165 30.701L66.6166 30.7017L66.7515 30.649ZM66.7863 21.3379L66.6525 21.2824L66.6521 21.2835L66.7863 21.3379ZM69.3225 17.3425L69.2161 17.2444L69.216 17.2445L69.3225 17.3425ZM73.1442 14.5631L73.2047 14.6945L73.2056 14.6941L73.1442 14.5631ZM82.8722 14.5978L82.8082 14.7277L82.8091 14.7281L82.8722 14.5978ZM89.0564 30.788L89.1905 30.8424L89.1908 30.8417L89.0564 30.788ZM86.5202 34.7834L86.4138 34.6853L86.4137 34.6854L86.5202 34.7834ZM82.6985 37.5281L82.6387 37.3962L82.638 37.3967L82.6985 37.5281ZM72.6231 31.7955L72.5081 31.8834L72.5096 31.8854L72.511 31.8872L72.6231 31.7955ZM74.8813 33.6369L74.8139 33.765L74.8159 33.766L74.8179 33.7671L74.8813 33.6369ZM81.0308 33.6022L81.0968 33.731L81.0981 33.7303L81.0995 33.7296L81.0308 33.6022ZM83.2891 31.6913L83.4041 31.7793L83.4054 31.7776L83.2891 31.6913ZM84.6441 29.0161L84.5064 28.9712L84.5061 28.9722L84.5059 28.9733L84.6441 29.0161ZM84.6094 22.9709L84.4717 23.0157L84.4723 23.0176L84.473 23.0195L84.6094 22.9709ZM83.1849 20.3304L83.07 20.4183L83.0714 20.4202L83.0728 20.422L83.1849 20.3304ZM80.9266 18.489L80.8591 18.6171L80.8612 18.6182L80.8632 18.6192L80.9266 18.489ZM74.8119 18.5238L74.8793 18.6519L74.8805 18.6512L74.8119 18.5238ZM71.1986 23.0403L71.0612 22.9946L71.0608 22.996L71.0604 22.9975L71.1986 23.0403ZM77.904 38.3909C76.1163 38.3909 74.4931 38.0472 73.0319 37.3624L72.909 37.6244C74.4126 38.3292 76.0784 38.6804 77.904 38.6804V38.3909ZM73.0327 37.3626C71.5903 36.6759 70.3435 35.7491 69.2909 34.5822L69.076 34.7762C70.1544 35.9718 71.4321 36.9211 72.9082 37.6241L73.0327 37.3626ZM69.293 34.5845C68.2615 33.3926 67.4594 32.0634 66.8863 30.5963L66.6166 30.7017C67.2017 32.1994 68.0209 33.557 69.0741 34.7739L69.293 34.5845ZM66.8866 30.5971C66.3138 29.1077 66.0277 27.585 66.0277 26.0282H65.7382C65.7382 27.6215 66.0312 29.1793 66.6165 30.701L66.8866 30.5971ZM66.0277 26.0282C66.0277 24.4018 66.3253 22.8569 66.9203 21.3924L66.6521 21.2835C66.0426 22.7837 65.7382 24.3656 65.7382 26.0282H66.0277ZM66.9199 21.3935C67.539 19.9031 68.3755 18.5857 69.429 17.4405L69.216 17.2445C68.1386 18.4155 67.2842 19.7618 66.6525 21.2824L66.9199 21.3935ZM69.4289 17.4407C70.5046 16.2734 71.7629 15.3583 73.2047 14.6945L73.0837 14.4316C71.6071 15.1113 70.3176 16.0491 69.2161 17.2444L69.4289 17.4407ZM73.2056 14.6941C74.6674 14.009 76.2674 13.6656 78.0082 13.6656V13.376C76.2282 13.376 74.5857 13.7275 73.0827 14.432L73.2056 14.6941ZM78.0082 13.6656C79.7717 13.6656 81.3709 14.0204 82.8082 14.7277L82.9361 14.4679C81.4551 13.7392 79.8117 13.376 78.0082 13.376V13.6656ZM82.8091 14.7281C84.2744 15.4379 85.5208 16.3872 86.5497 17.5762L86.7686 17.3868C85.713 16.1669 84.4348 15.1938 82.9353 14.4675L82.8091 14.7281ZM86.5497 17.5762C87.5812 18.7681 88.3833 20.0973 88.9563 21.5644L89.226 21.459C88.641 19.9613 87.8218 18.6037 86.7686 17.3868L86.5497 17.5762ZM88.9563 21.5644C89.5289 23.0301 89.815 24.5409 89.815 26.0977H90.1045C90.1045 24.5045 89.8115 22.958 89.226 21.459L88.9563 21.5644ZM89.815 26.0977C89.815 27.7007 89.5174 29.2459 88.922 30.7343L89.1908 30.8417C89.7999 29.3191 90.1045 27.7374 90.1045 26.0977H89.815ZM88.9222 30.7336C88.3267 32.1997 87.4907 33.5168 86.4138 34.6853L86.6266 34.8816C87.7269 33.6876 88.5818 32.341 89.1905 30.8424L88.9222 30.7336ZM86.4137 34.6854C85.3618 35.8288 84.104 36.7324 82.6387 37.3962L82.7583 37.66C84.2577 36.9805 85.5477 36.0543 86.6268 34.8814L86.4137 34.6854ZM82.638 37.3967C81.1992 38.0588 79.6219 38.3909 77.904 38.3909V38.6804C79.6602 38.6804 81.2793 38.3408 82.759 37.6596L82.638 37.3967ZM70.6022 26.0282C70.6022 27.1086 70.7666 28.1545 71.0957 29.1652L71.371 29.0755C71.0515 28.0943 70.8917 27.0788 70.8917 26.0282H70.6022ZM71.0957 29.1652C71.4247 30.1758 71.8953 31.0823 72.5081 31.8834L72.738 31.7077C72.1464 30.9338 71.6905 30.0568 71.371 29.0755L71.0957 29.1652ZM72.511 31.8872C73.1487 32.6667 73.9167 33.2928 74.8139 33.765L74.9488 33.5088C74.0856 33.0545 73.348 32.4531 72.7351 31.7039L72.511 31.8872ZM74.8179 33.7671C75.7434 34.218 76.7847 34.4418 77.9387 34.4418V34.1523C76.8229 34.1523 75.8259 33.936 74.9448 33.5068L74.8179 33.7671ZM77.9387 34.4418C79.1165 34.4418 80.1704 34.2061 81.0968 33.731L80.9648 33.4733C80.0847 33.9247 79.0771 34.1523 77.9387 34.1523V34.4418ZM81.0995 33.7296C82.0201 33.2339 82.789 32.5836 83.4041 31.7792L83.1742 31.6034C82.5849 32.374 81.848 32.9976 80.9622 33.4748L81.0995 33.7296ZM83.4054 31.7776C84.0174 30.9538 84.4765 30.0473 84.7823 29.059L84.5059 28.9733C84.2095 29.9306 83.7652 30.8075 83.1729 31.605L83.4054 31.7776ZM84.7818 29.061C85.1105 28.0513 85.2753 27.0401 85.2753 26.0282H84.9857C84.9857 27.0083 84.8262 27.989 84.5064 28.9712L84.7818 29.061ZM85.2753 26.0282C85.2753 24.9467 85.0988 23.9111 84.7457 22.9222L84.473 23.0195C84.8146 23.9762 84.9857 24.9788 84.9857 26.0282H85.2753ZM84.747 22.926C84.4175 21.9141 83.9343 21.0177 83.2969 20.2388L83.0728 20.422C83.6862 21.1718 84.1526 22.0357 84.4717 23.0157L84.747 22.926ZM83.2998 20.2425C82.6837 19.4368 81.9133 18.8087 80.99 18.3589L80.8632 18.6192C81.7465 19.0495 82.4815 19.649 83.07 20.4183L83.2998 20.2425ZM80.9941 18.3609C80.0908 17.8855 79.0712 17.6494 77.9387 17.6494V17.9389C79.0298 17.9389 80.0022 18.1661 80.8591 18.6171L80.9941 18.3609ZM77.9387 17.6494C76.7372 17.6494 75.6706 17.897 74.7432 18.3964L74.8805 18.6512C75.7598 18.1778 76.7777 17.9389 77.9387 17.9389V17.6494ZM74.7444 18.3957C73.8457 18.8686 73.0883 19.5077 72.4734 20.312L72.7033 20.4878C73.2927 19.717 74.0177 19.1054 74.8793 18.6519L74.7444 18.3957ZM72.4734 20.312C71.861 21.1125 71.3904 22.007 71.0612 22.9946L71.336 23.0861C71.6553 22.1281 72.1112 21.2622 72.7033 20.4878L72.4734 20.312ZM71.0604 22.9975C70.7549 23.9842 70.6022 24.9946 70.6022 26.0282H70.8917C70.8917 25.0236 71.0401 24.0421 71.3369 23.0832L71.0604 22.9975ZM93.6376 38.3619H93.4928V38.5067H93.6376V38.3619ZM93.6376 13.6945V13.5498H93.4928V13.6945H93.6376ZM107.674 14.3894L107.61 14.5195L107.611 14.5201L107.674 14.3894ZM110.175 16.2655L110.067 16.3613L110.067 16.3622L110.068 16.3631L110.175 16.2655ZM111.808 18.9059L111.673 18.9575L111.673 18.9589L111.674 18.9602L111.808 18.9059ZM111.843 24.9165L111.708 24.8649L111.707 24.8667L111.843 24.9165ZM107.952 29.0856L107.894 28.9529L107.742 29.0192L107.828 29.1607L107.952 29.0856ZM113.58 38.3619V38.5067H113.837L113.704 38.2868L113.58 38.3619ZM108.299 38.3619L108.176 38.4377L108.218 38.5067H108.299V38.3619ZM103.227 30.0931L103.35 30.0174L103.308 29.9484H103.227V30.0931ZM98.4321 30.0931V29.9484H98.2873V30.0931H98.4321ZM98.4321 38.3619V38.5067H98.5769V38.3619H98.4321ZM98.4321 25.8893H98.2873V26.034H98.4321V25.8893ZM106.041 25.3681L106.128 25.4839L106.13 25.4826L106.131 25.4812L106.041 25.3681ZM107.083 19.844L106.956 19.9126L106.956 19.9136L106.957 19.9148L107.083 19.844ZM105.832 18.4195L105.748 18.5374L105.75 18.5382L105.751 18.5391L105.832 18.4195ZM98.4321 17.8984V17.7536H98.2873V17.8984H98.4321ZM93.7823 38.3619V13.6945H93.4928V38.3619H93.7823ZM93.6376 13.8393H104.547V13.5498H93.6376V13.8393ZM104.547 13.8393C105.661 13.8393 106.682 14.0666 107.61 14.5195L107.737 14.2593C106.766 13.7857 105.702 13.5498 104.547 13.5498V13.8393ZM107.611 14.5201C108.567 14.9751 109.385 15.5887 110.067 16.3613L110.284 16.1697C109.576 15.3672 108.726 14.7301 107.736 14.2587L107.611 14.5201ZM110.068 16.3631C110.774 17.1374 111.309 18.002 111.673 18.9575L111.943 18.8544C111.566 17.8642 111.012 16.9686 110.282 16.1679L110.068 16.3631ZM111.674 18.9602C112.061 19.9164 112.254 20.8938 112.254 21.8938H112.543C112.543 20.8556 112.343 19.8411 111.942 18.8517L111.674 18.9602ZM112.254 21.8938C112.254 22.9185 112.072 23.9086 111.708 24.8649L111.978 24.968C112.355 23.9787 112.543 22.9538 112.543 21.8938H112.254ZM111.707 24.8667C111.366 25.7986 110.867 26.6157 110.208 27.3191L110.42 27.5168C111.105 26.7842 111.625 25.9336 111.979 24.9663L111.707 24.8667ZM110.208 27.3191C109.55 28.0226 108.779 28.5671 107.894 28.9529L108.01 29.2183C108.931 28.8166 109.735 28.2493 110.42 27.5168L110.208 27.3191ZM107.828 29.1607L113.456 38.4371L113.704 38.2868L108.075 29.0105L107.828 29.1607ZM113.58 38.2172H108.299V38.5067H113.58V38.2172ZM108.423 38.2862L103.35 30.0174L103.103 30.1689L108.176 38.4377L108.423 38.2862ZM103.227 29.9484H98.4321V30.2379H103.227V29.9484ZM98.2873 30.0931V38.3619H98.5769V30.0931H98.2873ZM98.4321 38.2172H93.6376V38.5067H98.4321V38.2172ZM98.4321 26.034H104.443V25.7445H98.4321V26.034ZM104.443 26.034C105.075 26.034 105.638 25.8509 106.128 25.4839L105.954 25.2523C105.517 25.5802 105.015 25.7445 104.443 25.7445V26.034ZM106.131 25.4812C106.614 25.0949 106.998 24.5897 107.284 23.9696L107.021 23.8483C106.751 24.4325 106.394 24.9001 105.95 25.2551L106.131 25.4812ZM107.284 23.9696C107.572 23.3462 107.714 22.6535 107.714 21.8938H107.425C107.425 22.6165 107.289 23.2672 107.021 23.8483L107.284 23.9696ZM107.714 21.8938C107.714 21.0862 107.548 20.3776 107.209 19.7732L106.957 19.9148C107.267 20.4685 107.425 21.1264 107.425 21.8938H107.714ZM107.211 19.7754C106.876 19.1549 106.445 18.6619 105.914 18.3L105.751 18.5391C106.239 18.8721 106.641 19.3286 106.956 19.9126L107.211 19.7754ZM105.916 18.3017C105.406 17.9373 104.844 17.7536 104.234 17.7536V18.0432C104.782 18.0432 105.286 18.2069 105.748 18.5374L105.916 18.3017ZM104.234 17.7536H98.4321V18.0432H104.234V17.7536ZM98.2873 17.8984V25.8893H98.5769V17.8984H98.2873ZM116.743 38.3619H116.598V38.5067H116.743V38.3619ZM116.743 13.6945V13.5498H116.598V13.6945H116.743ZM121.538 13.6945H121.682V13.5498H121.538V13.6945ZM121.538 38.3619V38.5067H121.682V38.3619H121.538ZM116.888 38.3619V13.6945H116.598V38.3619H116.888ZM116.743 13.8393H121.538V13.5498H116.743V13.8393ZM121.393 13.6945V38.3619H121.682V13.6945H121.393ZM121.538 38.2172H116.743V38.5067H121.538V38.2172ZM145.133 17.8984V18.0432H145.277V17.8984H145.133ZM137.246 17.8984V17.7536H137.101V17.8984H137.246ZM137.246 38.3619V38.5067H137.391V38.3619H137.246ZM132.486 38.3619H132.341V38.5067H132.486V38.3619ZM132.486 17.8984H132.631V17.7536H132.486V17.8984ZM124.599 17.8984H124.455V18.0432H124.599V17.8984ZM124.599 13.6945V13.5498H124.455V13.6945H124.599ZM145.133 13.6945H145.277V13.5498H145.133V13.6945ZM145.133 17.7536H137.246V18.0432H145.133V17.7536ZM137.101 17.8984V38.3619H137.391V17.8984H137.101ZM137.246 38.2172H132.486V38.5067H137.246V38.2172ZM132.631 38.3619V17.8984H132.341V38.3619H132.631ZM132.486 17.7536H124.599V18.0432H132.486V17.7536ZM124.744 17.8984V13.6945H124.455V17.8984H124.744ZM124.599 13.8393H145.133V13.5498H124.599V13.8393ZM144.988 13.6945V17.8984H145.277V13.6945H144.988ZM165.323 34.1581H165.467V34.0133H165.323V34.1581ZM165.323 38.3619V38.5067H165.467V38.3619H165.323ZM148.194 38.3619H148.05V38.5067H148.194V38.3619ZM148.194 13.6945V13.5498H148.05V13.6945H148.194ZM165.01 13.6945H165.155V13.5498H165.01V13.6945ZM165.01 17.8984V18.0432H165.155V17.8984H165.01ZM152.989 17.8984V17.7536H152.844V17.8984H152.989ZM152.989 23.8394H152.844V23.9842H152.989V23.8394ZM163.377 23.8394H163.522V23.6947H163.377V23.8394ZM163.377 27.7306V27.8754H163.522V27.7306H163.377ZM152.989 27.7306V27.5859H152.844V27.7306H152.989ZM152.989 34.1581H152.844V34.3028H152.989V34.1581ZM165.178 34.1581V38.3619H165.467V34.1581H165.178ZM165.323 38.2172H148.194V38.5067H165.323V38.2172ZM148.339 38.3619V13.6945H148.05V38.3619H148.339ZM148.194 13.8393H165.01V13.5498H148.194V13.8393ZM164.865 13.6945V17.8984H165.155V13.6945H164.865ZM165.01 17.7536H152.989V18.0432H165.01V17.7536ZM152.844 17.8984V23.8394H153.134V17.8984H152.844ZM152.989 23.9842H163.377V23.6947H152.989V23.9842ZM163.232 23.8394V27.7306H163.522V23.8394H163.232ZM163.377 27.5859H152.989V27.8754H163.377V27.5859ZM152.844 27.7306V34.1581H153.134V27.7306H152.844ZM152.989 34.3028H165.323V34.0133H152.989V34.3028Z" fill="#4265DF" fill-opacity="0.17"/>
</g>
<mask id="mask2_913_445" style="mask-type:luminance" maskUnits="userSpaceOnUse" x="2" y="44" width="146" height="26">
<path d="M147.657 44.2971H2.31641V69.7752H147.657V44.2971Z" fill="white"/>
<path d="M19.6995 65.137V69.3409H2.57129V44.6735H19.3868V48.8774H7.3658V54.8184H17.7539V58.7096H7.3658V65.137H19.6995ZM28.2319 53.4982V69.3409H23.4374V44.6735H27.2591L40.0098 60.9331V44.7082H44.8043V69.3409H40.8088L28.2319 53.4982ZM60.1848 69.5146C58.5866 69.5146 57.0695 69.1903 55.6335 68.5418C54.2206 67.8933 52.9699 67.0015 51.8812 65.8666C50.8158 64.7085 49.982 63.3651 49.3798 61.8364C48.7775 60.3078 48.4764 58.6517 48.4764 56.8682C48.4764 55.1774 48.7775 53.5908 49.3798 52.1084C49.982 50.6029 50.8274 49.2827 51.916 48.1478C53.0046 47.0128 54.2785 46.1211 55.7377 45.4726C57.1969 44.824 58.7835 44.4998 60.4975 44.4998C62.8137 44.4998 64.794 44.9977 66.4385 45.9937C68.1062 46.9665 69.3569 48.2636 70.1907 49.8849L66.6122 52.5254C65.9868 51.2978 65.1067 50.3597 63.9718 49.7112C62.86 49.0627 61.644 48.7384 60.3238 48.7384C59.2815 48.7384 58.3318 48.9584 57.4748 49.3985C56.6179 49.8386 55.8767 50.4408 55.2513 51.2051C54.6259 51.9695 54.1395 52.8496 53.7921 53.8456C53.4678 54.8415 53.3057 55.8954 53.3057 57.0072C53.3057 58.1884 53.4794 59.277 53.8268 60.273C54.1974 61.269 54.707 62.1375 55.3555 62.8787C56.0272 63.6199 56.8032 64.2105 57.6833 64.6506C58.5635 65.0675 59.5363 65.276 60.6017 65.276C61.8524 65.276 63.0453 64.9517 64.1802 64.3032C65.3383 63.6547 66.4153 62.705 67.4113 61.4543V66.1793C65.3499 68.4028 62.9411 69.5146 60.1848 69.5146ZM67.0639 60.1688H62.0956V56.6598H71.0246V69.3409H67.0639V60.1688ZM75.1106 69.3409V44.6735H79.9051V65.137H92.482V69.3409H75.1106ZM95.3999 69.3409V44.6735H100.194V69.3409H95.3999ZM120.037 51.1356C119.875 50.9735 119.574 50.7535 119.134 50.4755C118.717 50.1976 118.196 49.9312 117.57 49.6764C116.968 49.4217 116.308 49.2016 115.59 49.0163C114.872 48.8079 114.142 48.7036 113.401 48.7036C112.104 48.7036 111.12 48.9468 110.448 49.4332C109.8 49.9196 109.475 50.6029 109.475 51.4831C109.475 52.1548 109.684 52.6875 110.101 53.0812C110.518 53.475 111.143 53.8108 111.977 54.0888C112.811 54.3667 113.853 54.6678 115.104 54.9921C116.725 55.3859 118.126 55.8722 119.308 56.4513C120.512 57.0072 121.427 57.7484 122.052 58.6748C122.701 59.5782 123.025 60.7826 123.025 62.2881C123.025 63.6083 122.782 64.7433 122.295 65.6929C121.809 66.6194 121.137 67.3721 120.28 67.9512C119.423 68.5302 118.451 68.9587 117.362 69.2367C116.273 69.4914 115.115 69.6188 113.888 69.6188C112.66 69.6188 111.433 69.4914 110.205 69.2367C108.977 68.9819 107.796 68.6229 106.661 68.1596C105.526 67.6732 104.484 67.0942 103.534 66.4225L105.654 62.2881C105.862 62.4966 106.233 62.7745 106.765 63.1219C107.298 63.4462 107.947 63.782 108.711 64.1295C109.475 64.4537 110.309 64.7317 111.212 64.9633C112.116 65.1949 113.031 65.3107 113.957 65.3107C115.254 65.3107 116.239 65.0907 116.91 64.6506C117.582 64.2105 117.918 63.5852 117.918 62.7745C117.918 62.0333 117.651 61.4543 117.119 61.0374C116.586 60.6204 115.845 60.2614 114.895 59.9603C113.946 59.6361 112.822 59.2886 111.525 58.918C109.973 58.478 108.676 57.9916 107.634 57.4588C106.592 56.903 105.816 56.2081 105.306 55.3743C104.797 54.5404 104.542 53.4982 104.542 52.2474C104.542 50.5566 104.936 49.1437 105.723 48.0088C106.534 46.8507 107.622 45.9821 108.989 45.4031C110.356 44.8009 111.873 44.4998 113.54 44.4998C114.698 44.4998 115.787 44.6271 116.806 44.8819C117.848 45.1367 118.821 45.4726 119.724 45.8895C120.628 46.3064 121.438 46.758 122.156 47.2444L120.037 51.1356ZM147.39 44.6735V69.3409H142.63V58.8138H131.443V69.3409H126.648V44.6735H131.443V54.6447H142.63V44.6735H147.39Z" fill="black"/>
</mask>
<g mask="url(#mask2_913_445)">
<path d="M19.6993 65.1371H19.844V64.9923H19.6993V65.1371ZM19.6993 69.3409V69.4857H19.844V69.3409H19.6993ZM2.57103 69.3409H2.42627V69.4857H2.57103V69.3409ZM2.57103 44.6735V44.5288H2.42627V44.6735H2.57103ZM19.3866 44.6735H19.5313V44.5288H19.3866V44.6735ZM19.3866 48.8774V49.0222H19.5313V48.8774H19.3866ZM7.36555 48.8774V48.7326H7.22078V48.8774H7.36555ZM7.36555 54.8184H7.22078V54.9632H7.36555V54.8184ZM17.7537 54.8184H17.8984V54.6737H17.7537V54.8184ZM17.7537 58.7096V58.8544H17.8984V58.7096H17.7537ZM7.36555 58.7096V58.5649H7.22078V58.7096H7.36555ZM7.36555 65.1371H7.22078V65.2818H7.36555V65.1371ZM19.5545 65.1371V69.3409H19.844V65.1371H19.5545ZM19.6993 69.1962H2.57103V69.4857H19.6993V69.1962ZM2.71579 69.3409V44.6735H2.42627V69.3409H2.71579ZM2.57103 44.8183H19.3866V44.5288H2.57103V44.8183ZM19.2418 44.6735V48.8774H19.5313V44.6735H19.2418ZM19.3866 48.7326H7.36555V49.0222H19.3866V48.7326ZM7.22078 48.8774V54.8184H7.51031V48.8774H7.22078ZM7.36555 54.9632H17.7537V54.6737H7.36555V54.9632ZM17.6089 54.8184V58.7096H17.8984V54.8184H17.6089ZM17.7537 58.5649H7.36555V58.8544H17.7537V58.5649ZM7.22078 58.7096V65.1371H7.51031V58.7096H7.22078ZM7.36555 65.2818H19.6993V64.9923H7.36555V65.2818ZM28.2317 53.4982L28.345 53.4082L28.0869 53.083V53.4982H28.2317ZM28.2317 69.3409V69.4857H28.3764V69.3409H28.2317ZM23.4372 69.3409H23.2924V69.4857H23.4372V69.3409ZM23.4372 44.6735V44.5288H23.2924V44.6735H23.4372ZM27.2589 44.6735L27.3728 44.5842L27.3292 44.5288H27.2589V44.6735ZM40.0095 60.9332L39.8956 61.0225L40.1543 61.3524V60.9332H40.0095ZM40.0095 44.7083V44.5635H39.8647V44.7083H40.0095ZM44.804 44.7083H44.9488V44.5635H44.804V44.7083ZM44.804 69.3409V69.4857H44.9488V69.3409H44.804ZM40.8086 69.3409L40.6951 69.431L40.7387 69.4857H40.8086V69.3409ZM28.0869 53.4982V69.3409H28.3764V53.4982H28.0869ZM28.2317 69.1962H23.4372V69.4857H28.2317V69.1962ZM23.5819 69.3409V44.6735H23.2924V69.3409H23.5819ZM23.4372 44.8183H27.2589V44.5288H23.4372V44.8183ZM27.1449 44.7628L39.8956 61.0225L40.1234 60.8439L27.3728 44.5842L27.1449 44.7628ZM40.1543 60.9332V44.7083H39.8647V60.9332H40.1543ZM40.0095 44.853H44.804V44.5635H40.0095V44.853ZM44.6592 44.7083V69.3409H44.9488V44.7083H44.6592ZM44.804 69.1962H40.8086V69.4857H44.804V69.1962ZM40.9219 69.2509L28.345 53.4082L28.1182 53.5882L40.6951 69.431L40.9219 69.2509ZM55.6332 68.5419L55.5727 68.6735L55.5736 68.6737L55.6332 68.5419ZM51.881 65.8667L51.7744 65.9647L51.7755 65.9658L51.7765 65.9668L51.881 65.8667ZM49.3795 52.1085L49.5135 52.1629L49.5138 52.1622L49.3795 52.1085ZM66.4382 45.9937L66.3631 46.1175L66.3643 46.1182L66.3653 46.1188L66.4382 45.9937ZM70.1905 49.8849L70.2763 50.0015L70.3755 49.9282L70.3192 49.8188L70.1905 49.8849ZM66.612 52.5254L66.4828 52.5911L66.5604 52.7433L66.6978 52.6419L66.612 52.5254ZM63.9715 49.7112L63.8985 49.8363L63.8996 49.8369L63.9715 49.7112ZM53.7918 53.8456L53.655 53.798L53.6546 53.7993L53.6542 53.8008L53.7918 53.8456ZM53.8266 60.2731L53.6898 60.3207L53.6904 60.3221L53.6908 60.3236L53.8266 60.2731ZM55.3553 62.8788L55.2463 62.9742L55.2471 62.975L55.248 62.9761L55.3553 62.8788ZM57.683 64.6507L57.6182 64.7801L57.6196 64.7808L57.6209 64.7815L57.683 64.6507ZM64.18 64.3032L64.1092 64.1769L64.108 64.1776L64.18 64.3032ZM67.411 61.4543H67.5558V61.0402L67.2977 61.3641L67.411 61.4543ZM67.411 66.1793L67.5172 66.2778L67.5558 66.2361V66.1793H67.411ZM67.0636 60.1688H67.2084V60.0241H67.0636V60.1688ZM62.0954 60.1688H61.9506V60.3136H62.0954V60.1688ZM62.0954 56.6598V56.515H61.9506V56.6598H62.0954ZM71.0243 56.6598H71.1691V56.515H71.0243V56.6598ZM71.0243 69.3409V69.4857H71.1691V69.3409H71.0243ZM67.0636 69.3409H66.9188V69.4857H67.0636V69.3409ZM60.1845 69.3699C58.6065 69.3699 57.1098 69.0498 55.6927 68.41L55.5736 68.6737C57.0286 69.331 58.5661 69.6594 60.1845 69.6594V69.3699ZM55.6936 68.4103C54.2973 67.7694 53.0615 66.8884 51.9854 65.7665L51.7765 65.9668C52.8775 67.1148 54.1432 68.0172 55.5727 68.6735L55.6936 68.4103ZM51.9874 65.7687C50.9345 64.6243 50.1101 63.2963 49.5141 61.7834L49.2447 61.8896C49.8532 63.4341 50.6964 64.7928 51.7744 65.9647L51.9874 65.7687ZM49.5141 61.7834C48.9192 60.2731 48.6209 58.6351 48.6209 56.8683H48.3314C48.3314 58.6684 48.6353 60.3425 49.2447 61.8896L49.5141 61.7834ZM48.6209 56.8683C48.6209 55.1951 48.9187 53.627 49.5135 52.1629L49.2453 52.0541C48.6357 53.5547 48.3314 55.1598 48.3314 56.8683H48.6209ZM49.5138 52.1622C50.1094 50.6735 50.9448 49.3692 52.0201 48.248L51.8112 48.0476C50.7093 49.1963 49.8539 50.5325 49.245 52.0548L49.5138 52.1622ZM52.0201 48.248C53.0955 47.1268 54.3538 46.2459 55.7962 45.6049L55.6785 45.3403C54.2025 45.9964 52.913 46.8989 51.8112 48.0476L52.0201 48.248ZM55.7962 45.6049C57.2356 44.9652 58.8019 44.6446 60.4972 44.6446V44.355C58.7644 44.355 57.1576 44.6829 55.6785 45.3403L55.7962 45.6049ZM60.4972 44.6446C62.7923 44.6446 64.7455 45.1379 66.3631 46.1175L66.5132 45.87C64.8418 44.8577 62.8344 44.355 60.4972 44.355V44.6446ZM66.3653 46.1188C68.0105 47.0786 69.2413 48.3558 70.0616 49.9511L70.3192 49.8188C69.4719 48.1714 68.2011 46.8545 66.5111 45.8687L66.3653 46.1188ZM70.1045 49.7684L66.526 52.4089L66.6978 52.6419L70.2763 50.0015L70.1045 49.7684ZM66.7409 52.4597C66.1034 51.2084 65.204 50.2489 64.0433 49.5856L63.8996 49.8369C65.0087 50.4707 65.8696 51.3873 66.4828 52.5911L66.7409 52.4597ZM64.0443 49.5862C62.9098 48.9245 61.6686 48.5937 60.3235 48.5937V48.8832C61.6187 48.8832 62.8095 49.2009 63.8985 49.8363L64.0443 49.5862ZM60.3235 48.5937C59.2601 48.5937 58.2874 48.8183 57.4084 49.2697L57.5406 49.5274C58.3756 49.0986 59.3022 48.8832 60.3235 48.8832V48.5937ZM57.4084 49.2697C56.5332 49.7192 55.7765 50.3341 55.139 51.1135L55.3629 51.2968C55.9762 50.5475 56.7018 49.9581 57.5406 49.5274L57.4084 49.2697ZM55.139 51.1135C54.5022 51.8918 54.0077 52.7871 53.655 53.798L53.9285 53.8933C54.2707 52.9122 54.749 52.0473 55.3629 51.2968L55.139 51.1135ZM53.6542 53.8008C53.3248 54.8121 53.1607 55.8811 53.1607 57.0072H53.4502C53.4502 55.9098 53.6102 54.8711 53.9294 53.8905L53.6542 53.8008ZM53.1607 57.0072C53.1607 58.2028 53.3364 59.3078 53.6898 60.3207L53.9632 60.2254C53.6217 59.2464 53.4502 58.1742 53.4502 57.0072H53.1607ZM53.6908 60.3236C54.067 61.3346 54.5853 62.2187 55.2463 62.9742L55.4641 62.7834C54.828 62.0565 54.3272 61.2034 53.9622 60.2225L53.6908 60.3236ZM55.248 62.9761C55.9314 63.7303 56.7218 64.3319 57.6182 64.7801L57.7477 64.5212C56.8838 64.0893 56.1224 63.5096 55.4624 62.7815L55.248 62.9761ZM57.6209 64.7815C58.5222 65.2084 59.5166 65.4208 60.6014 65.4208V65.1313C59.5552 65.1313 58.604 64.9267 57.745 64.5198L57.6209 64.7815ZM60.6014 65.4208C61.8785 65.4208 63.096 65.0894 64.2518 64.4289L64.108 64.1776C62.9939 64.8141 61.8257 65.1313 60.6014 65.1313V65.4208ZM64.2506 64.4296C65.4281 63.7702 66.5189 62.807 67.5242 61.5445L67.2977 61.3641C66.3111 62.6031 65.2479 63.5392 64.1092 64.1769L64.2506 64.4296ZM67.2663 61.4543V66.1793H67.5558V61.4543H67.2663ZM67.3048 66.0809C65.2677 68.2783 62.8962 69.3699 60.1845 69.3699V69.6594C62.9852 69.6594 65.4314 68.5275 67.5172 66.2778L67.3048 66.0809ZM67.0636 60.0241H62.0954V60.3136H67.0636V60.0241ZM62.2401 60.1688V56.6598H61.9506V60.1688H62.2401ZM62.0954 56.8046H71.0243V56.515H62.0954V56.8046ZM70.8795 56.6598V69.3409H71.1691V56.6598H70.8795ZM71.0243 69.1962H67.0636V69.4857H71.0243V69.1962ZM67.2084 69.3409V60.1688H66.9188V69.3409H67.2084ZM75.1103 69.3409H74.9656V69.4857H75.1103V69.3409ZM75.1103 44.6735V44.5288H74.9656V44.6735H75.1103ZM79.9049 44.6735H80.0496V44.5288H79.9049V44.6735ZM79.9049 65.1371H79.7601V65.2818H79.9049V65.1371ZM92.4818 65.1371H92.6265V64.9923H92.4818V65.1371ZM92.4818 69.3409V69.4857H92.6265V69.3409H92.4818ZM75.2551 69.3409V44.6735H74.9656V69.3409H75.2551ZM75.1103 44.8183H79.9049V44.5288H75.1103V44.8183ZM79.7601 44.6735V65.1371H80.0496V44.6735H79.7601ZM79.9049 65.2818H92.4818V64.9923H79.9049V65.2818ZM92.337 65.1371V69.3409H92.6265V65.1371H92.337ZM92.4818 69.1962H75.1103V69.4857H92.4818V69.1962ZM95.3996 69.3409H95.2548V69.4857H95.3996V69.3409ZM95.3996 44.6735V44.5288H95.2548V44.6735H95.3996ZM100.194 44.6735H100.339V44.5288H100.194V44.6735ZM100.194 69.3409V69.4857H100.339V69.3409H100.194ZM95.5444 69.3409V44.6735H95.2548V69.3409H95.5444ZM95.3996 44.8183H100.194V44.5288H95.3996V44.8183ZM100.049 44.6735V69.3409H100.339V44.6735H100.049ZM100.194 69.1962H95.3996V69.4857H100.194V69.1962ZM120.037 51.1357L119.935 51.238L120.071 51.375L120.164 51.2049L120.037 51.1357ZM119.134 50.4756L119.053 50.596L119.055 50.597L119.056 50.5979L119.134 50.4756ZM117.57 49.6765L117.514 49.8098L117.516 49.8105L117.57 49.6765ZM115.59 49.0164L115.549 49.1553L115.551 49.1561L115.554 49.1565L115.59 49.0164ZM110.448 49.4333L110.363 49.316L110.362 49.3168L110.361 49.3175L110.448 49.4333ZM115.103 54.9921L115.067 55.1323L115.068 55.1326L115.069 55.1329L115.103 54.9921ZM119.307 56.4513L119.244 56.5813L119.245 56.5821L119.247 56.5828L119.307 56.4513ZM122.052 58.6749L121.932 58.7558L121.933 58.7575L121.934 58.7593L122.052 58.6749ZM122.295 65.6929L122.423 65.7603L122.424 65.759L122.295 65.6929ZM117.362 69.2367L117.395 69.3777L117.396 69.3773L117.397 69.377L117.362 69.2367ZM106.661 68.1597L106.604 68.2927L106.605 68.2933L106.606 68.2937L106.661 68.1597ZM103.534 66.4225L103.405 66.3565L103.348 66.4683L103.45 66.5407L103.534 66.4225ZM105.653 62.2881L105.756 62.1858L105.615 62.0452L105.525 62.2221L105.653 62.2881ZM106.765 63.122L106.686 63.2433L106.688 63.2444L106.69 63.2456L106.765 63.122ZM108.711 64.1295L108.651 64.2613L108.653 64.2621L108.654 64.2628L108.711 64.1295ZM114.895 59.9604L114.848 60.0973L114.85 60.0979L114.851 60.0983L114.895 59.9604ZM111.525 58.9181L111.565 58.7788H111.564L111.525 58.9181ZM107.634 57.4589L107.566 57.5866L107.567 57.5871L107.568 57.5877L107.634 57.4589ZM105.723 48.0088L105.604 47.9259L105.604 47.9263L105.723 48.0088ZM108.989 45.4031L109.045 45.5364L109.046 45.536L109.047 45.5356L108.989 45.4031ZM116.806 44.882L116.771 45.0224L116.771 45.0225L116.806 44.882ZM122.156 47.2445L122.283 47.3137L122.346 47.1983L122.237 47.1246L122.156 47.2445ZM120.139 51.0333C119.965 50.8588 119.652 50.6315 119.211 50.3533L119.056 50.5979C119.496 50.8756 119.785 51.0884 119.935 51.238L120.139 51.0333ZM119.214 50.3551C118.787 50.0702 118.256 49.7997 117.625 49.5424L117.516 49.8105C118.135 50.0629 118.647 50.325 119.053 50.596L119.214 50.3551ZM117.627 49.5432C117.017 49.2852 116.35 49.063 115.626 48.8762L115.554 49.1565C116.266 49.3404 116.919 49.5581 117.514 49.8098L117.627 49.5432ZM115.63 48.8774C114.899 48.6652 114.156 48.5589 113.401 48.5589V48.8485C114.128 48.8485 114.844 48.9507 115.549 49.1553L115.63 48.8774ZM113.401 48.5589C112.089 48.5589 111.07 48.8042 110.363 49.316L110.533 49.5505C111.169 49.0896 112.118 48.8485 113.401 48.8485V48.5589ZM110.361 49.3175C109.673 49.8338 109.33 50.5619 109.33 51.4831H109.62C109.62 50.6439 109.926 50.0055 110.535 49.5491L110.361 49.3175ZM109.33 51.4831C109.33 52.1872 109.55 52.7608 110.001 53.1865L110.2 52.976C109.817 52.6143 109.62 52.1224 109.62 51.4831H109.33ZM110.001 53.1865C110.439 53.6004 111.087 53.9448 111.931 54.2262L112.022 53.9515C111.199 53.677 110.595 53.3497 110.2 52.976L110.001 53.1865ZM111.931 54.2262C112.769 54.5055 113.814 54.8076 115.067 55.1323L115.14 54.852C113.891 54.5282 112.852 54.2281 112.022 53.9515L111.931 54.2262ZM115.069 55.1329C116.683 55.5247 118.074 56.0079 119.244 56.5813L119.371 56.3214C118.178 55.7367 116.767 55.2471 115.138 54.8514L115.069 55.1329ZM119.247 56.5828C120.432 57.1297 121.324 57.8551 121.932 58.7558L122.172 58.594C121.529 57.6417 120.592 56.8848 119.368 56.3199L119.247 56.5828ZM121.934 58.7593C122.56 59.6306 122.88 60.8023 122.88 62.2881H123.17C123.17 60.7629 122.841 59.5258 122.17 58.5905L121.934 58.7593ZM122.88 62.2881C122.88 63.5907 122.64 64.7021 122.166 65.6269L122.424 65.759C122.923 64.7846 123.17 63.626 123.17 62.2881H122.88ZM122.167 65.6256C121.692 66.5313 121.036 67.2658 120.199 67.8312L120.361 68.0712C121.238 67.4786 121.926 66.7076 122.423 65.7603L122.167 65.6256ZM120.199 67.8312C119.357 68.4003 118.4 68.8223 117.326 69.0964L117.397 69.377C118.501 69.0953 119.489 68.6603 120.361 68.0712L120.199 67.8312ZM117.329 69.0957C116.252 69.3478 115.105 69.4741 113.887 69.4741V69.7637C115.125 69.7637 116.294 69.6352 117.395 69.3777L117.329 69.0957ZM113.887 69.4741C112.67 69.4741 111.452 69.3477 110.234 69.095L110.175 69.3784C111.412 69.6352 112.65 69.7637 113.887 69.7637V69.4741ZM110.234 69.095C109.015 68.842 107.842 68.4855 106.716 68.0256L106.606 68.2937C107.75 68.7603 108.939 69.1219 110.175 69.3784L110.234 69.095ZM106.718 68.0267C105.592 67.544 104.559 66.9699 103.618 66.3044L103.45 66.5407C104.409 67.2186 105.46 67.8026 106.604 68.2927L106.718 68.0267ZM103.663 66.4886L105.782 62.3542L105.525 62.2221L103.405 66.3565L103.663 66.4886ZM105.551 62.3905C105.771 62.6104 106.152 62.8951 106.686 63.2433L106.844 63.0007C106.312 62.654 105.953 62.3828 105.756 62.1858L105.551 62.3905ZM106.69 63.2456C107.229 63.5738 107.883 63.9122 108.651 64.2613L108.771 63.9978C108.01 63.6519 107.367 63.3187 106.84 62.9984L106.69 63.2456ZM108.654 64.2628C109.426 64.5901 110.267 64.8704 111.176 65.1036L111.248 64.8231C110.351 64.593 109.524 64.3174 108.767 63.9962L108.654 64.2628ZM111.176 65.1036C112.091 65.3381 113.018 65.4555 113.957 65.4555V65.166C113.043 65.166 112.14 65.0518 111.248 64.8231L111.176 65.1036ZM113.957 65.4555C115.266 65.4555 116.284 65.2341 116.989 64.7717L116.831 64.5296C116.193 64.9474 115.242 65.166 113.957 65.166V65.4555ZM116.989 64.7717C117.702 64.3047 118.062 63.6334 118.062 62.7745H117.773C117.773 63.537 117.461 64.1165 116.831 64.5296L116.989 64.7717ZM118.062 62.7745C118.062 61.9937 117.779 61.3706 117.208 60.9233L117.029 61.1515C117.523 61.538 117.773 62.073 117.773 62.7745H118.062ZM117.208 60.9233C116.657 60.4921 115.898 60.1264 114.939 59.8224L114.851 60.0983C115.791 60.3965 116.515 60.7489 117.029 61.1515L117.208 60.9233ZM114.942 59.8234C113.989 59.4982 112.863 59.15 111.565 58.7788L111.485 59.0574C112.781 59.4274 113.901 59.7741 114.848 60.0973L114.942 59.8234ZM111.564 58.7788C110.019 58.3405 108.731 57.8571 107.7 57.3301L107.568 57.5877C108.621 58.1261 109.928 58.6155 111.485 59.0574L111.564 58.7788ZM107.702 57.3312C106.678 56.7849 105.923 56.1064 105.429 55.2989L105.182 55.4497C105.708 56.3099 106.505 57.0211 107.566 57.5866L107.702 57.3312ZM105.429 55.2989C104.937 54.4933 104.686 53.479 104.686 52.2475H104.397C104.397 53.5175 104.656 54.5877 105.182 55.4497L105.429 55.2989ZM104.686 52.2475C104.686 50.5795 105.074 49.197 105.842 48.0913L105.604 47.9263C104.796 49.0905 104.397 50.5338 104.397 52.2475H104.686ZM105.841 48.0918C106.636 46.9571 107.702 46.1054 109.045 45.5364L108.932 45.2698C107.542 45.859 106.431 46.7443 105.604 47.9259L105.841 48.0918ZM109.047 45.5356C110.393 44.9423 111.89 44.6446 113.54 44.6446V44.355C111.855 44.355 110.317 44.6595 108.93 45.2707L109.047 45.5356ZM113.54 44.6446C114.687 44.6446 115.764 44.7708 116.771 45.0224L116.841 44.7416C115.809 44.4836 114.709 44.355 113.54 44.355V44.6446ZM116.771 45.0225C117.805 45.2753 118.769 45.6082 119.664 46.021L119.785 45.7581C118.872 45.337 117.891 44.9982 116.84 44.7414L116.771 45.0225ZM119.664 46.021C120.561 46.435 121.364 46.8829 122.075 47.3644L122.237 47.1246C121.512 46.6333 120.694 46.1779 119.785 45.7581L119.664 46.021ZM122.029 47.1753L119.91 51.0665L120.164 51.2049L122.283 47.3137L122.029 47.1753ZM147.389 44.6735H147.534V44.5288H147.389V44.6735ZM147.389 69.3409V69.4857H147.534V69.3409H147.389ZM142.629 69.3409H142.485V69.4857H142.629V69.3409ZM142.629 58.8139H142.774V58.6691H142.629V58.8139ZM131.442 58.8139V58.6691H131.298V58.8139H131.442ZM131.442 69.3409V69.4857H131.587V69.3409H131.442ZM126.648 69.3409H126.503V69.4857H126.648V69.3409ZM126.648 44.6735V44.5288H126.503V44.6735H126.648ZM131.442 44.6735H131.587V44.5288H131.442V44.6735ZM131.442 54.6447H131.298V54.7895H131.442V54.6447ZM142.629 54.6447V54.7895H142.774V54.6447H142.629ZM142.629 44.6735V44.5288H142.485V44.6735H142.629ZM147.245 44.6735V69.3409H147.534V44.6735H147.245ZM147.389 69.1962H142.629V69.4857H147.389V69.1962ZM142.774 69.3409V58.8139H142.485V69.3409H142.774ZM142.629 58.6691H131.442V58.9586H142.629V58.6691ZM131.298 58.8139V69.3409H131.587V58.8139H131.298ZM131.442 69.1962H126.648V69.4857H131.442V69.1962ZM126.793 69.3409V44.6735H126.503V69.3409H126.793ZM126.648 44.8183H131.442V44.5288H126.648V44.8183ZM131.298 44.6735V54.6447H131.587V44.6735H131.298ZM131.442 54.7895H142.629V54.5H131.442V54.7895ZM142.774 54.6447V44.6735H142.485V54.6447H142.774ZM142.629 44.8183H147.389V44.5288H142.629V44.8183Z" fill="#4265DF" fill-opacity="0.17"/>
</g>
<path d="M55.533 24.3589L55.4438 28.6428L59.436 30.1995L55.1521 30.1104L53.5957 34.1025L53.6846 29.8187L49.6924 28.2622L53.9763 28.3511L55.533 24.3589Z" fill="#5775EB" fill-opacity="0.74"/>
<path d="M16.5213 43.8461L17.9723 46.6088L21.436 46.3663L18.279 47.6359L18.5558 50.6666L17.1048 47.9042L13.6411 48.1465L16.7985 46.8768L16.5213 43.8461Z" fill="#5775EB" fill-opacity="0.74"/>
<path d="M33.1851 7.79486L33.5771 10.7015L36.0512 11.2712L33.5599 11.7285L33.0715 14.6154L32.6795 11.7088L30.2051 11.1387L32.6965 10.6813L33.1851 7.79486Z" fill="#5775EB" fill-opacity="0.74"/>
<g filter="url(#filter0_f_913_445)">
<path d="M97 0C97 15.464 90.732 28 83 28C75.268 28 69 15.464 69 0C69 -15.464 75.268 -28 83 -28C90.732 -28 97 -15.464 97 0Z" fill="#7338D2" fill-opacity="0.64"/>
</g>
<g filter="url(#filter1_f_913_445)">
<path d="M27 90C27 105.464 20.732 118 13 118C5.26801 118 -1 105.464 -1 90C-1 74.536 5.26801 62 13 62C20.732 62 27 74.536 27 90Z" fill="#3D5ED1" fill-opacity="0.64"/>
</g>
<path d="M45.6724 76.0284H30.4001H30.2553V49.8989H29.3867V32.7446L30.4001 29.6322L31.2686 32.7446H31.4134V28.9808L33.8743 24.2036L33.9467 19.5306L37.9277 10.1617V10.017C37.6961 10.017 37.6381 9.72744 37.6381 9.58268C37.6381 8.93125 37.8071 7.58013 38.0001 6.97696C38.0724 6.68744 38.3861 8.68997 38.4343 9.58268C38.3185 9.9301 38.1448 10.017 38.0724 10.017V10.1617L42.1258 19.5306V24.2036L44.5143 28.9808V32.7446H44.5867L45.6001 29.5598L46.6134 32.7446V49.8989H45.6724V50.0437V76.0284Z" fill="#5A7DF1"/>
<path d="M38.0725 10.1617L42.1258 19.5306H33.9468L37.9277 10.1617V10.017C37.6961 10.017 37.6382 9.72744 37.6382 9.58268C37.6382 8.93125 37.8071 7.58013 38.0001 6.97696C38.0725 6.68744 38.3862 8.68997 38.4344 9.58268C38.3186 9.9301 38.1449 10.017 38.0725 10.017V10.1617Z" fill="#272D73"/>
<path d="M33.2231 32.1371H32.3545V30.2552C32.3545 30.1394 32.4993 30.0623 32.5716 30.0381H33.0059C33.1217 30.0381 33.1989 30.1828 33.2231 30.2552V32.1371Z" fill="#2D438D"/>
<path d="M35.2494 32.1371H34.3809V30.2552C34.3809 30.1394 34.5256 30.0623 34.598 30.0381H35.0323C35.1481 30.0381 35.2253 30.1828 35.2494 30.2552V32.1371Z" fill="#2D438D"/>
<path d="M37.4208 32.1371H36.5522V30.2552C36.5522 30.1394 36.697 30.0623 36.7694 30.0381H37.2037C37.3195 30.0381 37.3966 30.1828 37.4208 30.2552V32.1371Z" fill="#2D438D"/>
<path d="M39.4477 32.1371H38.5791V30.2552C38.5791 30.1394 38.7239 30.0623 38.7962 30.0381H39.2305C39.3463 30.0381 39.4235 30.1828 39.4477 30.2552V32.1371Z" fill="#2D438D"/>
<path d="M41.6191 32.1371H40.7505V30.2552C40.7505 30.1394 40.8953 30.0623 40.9676 30.0381H41.4019C41.5177 30.0381 41.5949 30.1828 41.6191 30.2552V32.1371Z" fill="#2D438D"/>
<path d="M43.6459 32.1371H42.7773V30.2552C42.7773 30.1394 42.9221 30.0623 42.9945 30.0381H43.4288C43.5446 30.0381 43.6217 30.1828 43.6459 30.2552V32.1371Z" fill="#2D438D"/>
<path d="M35.756 23.6415H34.7427V20.9181C35.177 20.2667 35.6153 20.6792 35.756 20.9181V23.6415Z" fill="#2D438D"/>
<path d="M37.4933 23.6415H36.48V20.9181C36.9143 20.2667 37.3526 20.6792 37.4933 20.9181V23.6415Z" fill="#2D438D"/>
<path d="M39.3751 23.6415H38.3618V20.9181C38.7961 20.2667 39.2344 20.6792 39.3751 20.9181V23.6415Z" fill="#2D438D"/>
<path d="M41.257 23.6415H40.2437V20.9181C40.6779 20.2667 41.1163 20.6792 41.257 20.9181V23.6415Z" fill="#2D438D"/>
<path d="M33.2231 48.64H32.3545V46.7581C32.3545 46.6423 32.4993 46.5651 32.5716 46.541H33.0059C33.1217 46.541 33.1989 46.6857 33.2231 46.7581V48.64Z" fill="#2D438D"/>
<path d="M35.2494 48.64H34.3809V46.7581C34.3809 46.6423 34.5256 46.5651 34.598 46.541H35.0323C35.1481 46.541 35.2253 46.6857 35.2494 46.7581V48.64Z" fill="#2D438D"/>
<path d="M37.4208 48.64H36.5522V46.7581C36.5522 46.6423 36.697 46.5651 36.7694 46.541H37.2037C37.3195 46.541 37.3966 46.6857 37.4208 46.7581V48.64Z" fill="#2D438D"/>
<path d="M39.4477 48.64H38.5791V46.7581C38.5791 46.6423 38.7239 46.5651 38.7962 46.541H39.2305C39.3463 46.541 39.4235 46.6857 39.4477 46.7581V48.64Z" fill="#2D438D"/>
<path d="M41.6191 48.64H40.7505V46.7581C40.7505 46.6423 40.8953 46.5651 40.9676 46.541H41.4019C41.5177 46.541 41.5949 46.6857 41.6191 46.7581V48.64Z" fill="#2D438D"/>
<path d="M43.6459 48.64H42.7773V46.7581C42.7773 46.6423 42.9221 46.5651 42.9945 46.541H43.4288C43.5446 46.541 43.6217 46.6857 43.6459 46.7581V48.64Z" fill="#2D438D"/>
<path d="M32.499 62.158V53.7418C32.499 53.5306 32.5504 53.2886 32.7498 53.2188C32.8712 53.1764 32.9974 53.1913 33.1059 53.2321C33.3035 53.3065 33.3676 53.5306 33.3676 53.7418V62.1956C33.3676 62.3719 33.3372 62.5643 33.1955 62.6693C33.0362 62.787 32.8618 62.7548 32.7217 62.6723C32.5493 62.5707 32.499 62.3581 32.499 62.158Z" fill="#2D438D"/>
<path d="M34.3809 62.158V53.7418C34.3809 53.5306 34.4322 53.2886 34.6316 53.2188C34.753 53.1764 34.8793 53.1913 34.9877 53.2321C35.1853 53.3065 35.2494 53.5306 35.2494 53.7418V62.1956C35.2494 62.3719 35.219 62.5643 35.0773 62.6693C34.9181 62.787 34.7436 62.7548 34.6035 62.6723C34.4311 62.5707 34.3809 62.3581 34.3809 62.158Z" fill="#2D438D"/>
<path d="M36.5522 62.158V53.7418C36.5522 53.5306 36.6036 53.2886 36.803 53.2188C36.9244 53.1764 37.0507 53.1913 37.1591 53.2321C37.3567 53.3065 37.4208 53.5306 37.4208 53.7418V62.1956C37.4208 62.3719 37.3904 62.5643 37.2487 62.6693C37.0895 62.787 36.915 62.7548 36.7749 62.6723C36.6025 62.5707 36.5522 62.3581 36.5522 62.158Z" fill="#2D438D"/>
<path d="M38.7236 62.158V53.7418C38.7236 53.5306 38.775 53.2886 38.9744 53.2188C39.0958 53.1764 39.222 53.1913 39.3305 53.2321C39.5281 53.3065 39.5922 53.5306 39.5922 53.7418V62.1956C39.5922 62.3719 39.5618 62.5643 39.4201 62.6693C39.2608 62.787 39.0864 62.7548 38.9463 62.6723C38.7739 62.5707 38.7236 62.3581 38.7236 62.158Z" fill="#2D438D"/>
<path d="M40.7505 62.158V53.7418C40.7505 53.5306 40.8019 53.2886 41.0012 53.2188C41.1227 53.1764 41.2489 53.1913 41.3573 53.2321C41.5549 53.3065 41.6191 53.5306 41.6191 53.7418V62.1956C41.6191 62.3719 41.5887 62.5643 41.4469 62.6693C41.2877 62.787 41.1133 62.7548 40.9731 62.6723C40.8007 62.5707 40.7505 62.3581 40.7505 62.158Z" fill="#2D438D"/>
<path d="M42.7773 62.158V53.7418C42.7773 53.5306 42.8287 53.2886 43.0281 53.2188C43.1495 53.1764 43.2758 53.1913 43.3842 53.2321C43.5818 53.3065 43.6459 53.5306 43.6459 53.7418V62.1956C43.6459 62.3719 43.6155 62.5643 43.4738 62.6693C43.3146 62.787 43.1401 62.7548 43 62.6723C42.8276 62.5707 42.7773 62.3581 42.7773 62.158Z" fill="#2D438D"/>
<path d="M32.499 74.4628V66.0466C32.499 65.8354 32.5504 65.5934 32.7498 65.5236C32.8712 65.4812 32.9974 65.4961 33.1059 65.5369C33.3035 65.6113 33.3676 65.8354 33.3676 66.0466V74.5004C33.3676 74.6768 33.3372 74.8691 33.1955 74.9741C33.0362 75.0918 32.8618 75.0597 32.7217 74.9771C32.5493 74.8755 32.499 74.6629 32.499 74.4628Z" fill="#2D438D"/>
<path d="M34.3809 74.4628V66.0466C34.3809 65.8354 34.4322 65.5934 34.6316 65.5236C34.753 65.4812 34.8793 65.4961 34.9877 65.5369C35.1853 65.6113 35.2494 65.8354 35.2494 66.0466V74.5004C35.2494 74.6768 35.219 74.8691 35.0773 74.9741C34.9181 75.0918 34.7436 75.0597 34.6035 74.9771C34.4311 74.8755 34.3809 74.6629 34.3809 74.4628Z" fill="#2D438D"/>
<path d="M36.5522 74.4628V66.0466C36.5522 65.8354 36.6036 65.5934 36.803 65.5236C36.9244 65.4812 37.0507 65.4961 37.1591 65.5369C37.3567 65.6113 37.4208 65.8354 37.4208 66.0466V74.5004C37.4208 74.6768 37.3904 74.8691 37.2487 74.9741C37.0895 75.0918 36.915 75.0597 36.7749 74.9771C36.6025 74.8755 36.5522 74.6629 36.5522 74.4628Z" fill="#2D438D"/>
<path d="M38.7236 74.4628V66.0466C38.7236 65.8354 38.775 65.5934 38.9744 65.5236C39.0958 65.4812 39.222 65.4961 39.3305 65.5369C39.5281 65.6113 39.5922 65.8354 39.5922 66.0466V74.5004C39.5922 74.6768 39.5618 74.8691 39.4201 74.9741C39.2608 75.0918 39.0864 75.0597 38.9463 74.9771C38.7739 74.8755 38.7236 74.6629 38.7236 74.4628Z" fill="#2D438D"/>
<path d="M40.7505 74.4628V66.0466C40.7505 65.8354 40.8019 65.5934 41.0012 65.5236C41.1227 65.4812 41.2489 65.4961 41.3573 65.5369C41.5549 65.6113 41.6191 65.8354 41.6191 66.0466V74.5004C41.6191 74.6768 41.5887 74.8691 41.4469 74.9741C41.2877 75.0918 41.1133 75.0597 40.9731 74.9771C40.8007 74.8755 40.7505 74.6629 40.7505 74.4628Z" fill="#2D438D"/>
<path d="M42.7773 74.4628V66.0466C42.7773 65.8354 42.8287 65.5934 43.0281 65.5236C43.1495 65.4812 43.2758 65.4961 43.3842 65.5369C43.5818 65.6113 43.6459 65.8354 43.6459 66.0466V74.5004C43.6459 74.6768 43.6155 74.8691 43.4738 74.9741C43.3146 75.0918 43.1401 75.0597 43 74.9771C42.8276 74.8755 42.7773 74.6629 42.7773 74.4628Z" fill="#2D438D"/>
<path d="M30.4001 29.6038L29.3867 32.7452H31.2686L30.4001 29.6038Z" fill="#272D73"/>
<path d="M45.5998 29.5314L44.5864 32.7451H46.6131L45.5998 29.5314Z" fill="#272D73"/>
<path d="M44.5145 28.9524H31.4136L33.8745 24.1752H42.126L44.5145 28.9524Z" fill="#272D73"/>
<path d="M46.6134 49.1467H29.3867" stroke="#3E4E87"/>
<path d="M46.6134 33.9467H29.3867" stroke="#3E4E87"/>
<path d="M45.6725 63.1886H30.2554" stroke="#3E4E87"/>
<path d="M45.6725 64.9257H30.2554" stroke="#3E4E87"/>
<path d="M42.9582 35.5029H33.3315V45.1295H42.9582V35.5029Z" stroke="#2D438D" stroke-width="0.5"/>
<path d="M42.198 40.3162C42.198 42.5547 40.3832 44.3695 38.1446 44.3695C35.906 44.3695 34.0913 42.5547 34.0913 40.3162C34.0913 38.0776 35.906 36.2628 38.1446 36.2628C40.3832 36.2628 42.198 38.0776 42.198 40.3162Z" fill="#EAE2D7" stroke="#3E4E87"/>
<path d="M41.8002 40.3162C41.8002 42.3349 40.1637 43.9714 38.145 43.9714C36.1263 43.9714 34.4897 42.3349 34.4897 40.3162C34.4897 38.2975 36.1263 36.6609 38.145 36.6609C40.1637 36.6609 41.8002 38.2975 41.8002 40.3162Z" stroke="#3E4E87" stroke-width="0.5"/>
<path d="M40.3525 40.3886C40.3525 41.5678 39.3965 42.5238 38.2173 42.5238C37.038 42.5238 36.082 41.5678 36.082 40.3886C36.082 39.2094 37.038 38.2534 38.2173 38.2534C39.3965 38.2534 40.3525 39.2094 40.3525 40.3886Z" stroke="#3E4E87" stroke-width="0.5"/>
<path d="M37.9277 39.8096V38.2896H38.2896V39.8096H37.9277Z" fill="#3E4E87"/>
<path d="M38.1084 40.8952C38.4482 40.8952 38.7236 40.6198 38.7236 40.28C38.7236 39.9402 38.4482 39.6647 38.1084 39.6647C37.7686 39.6647 37.4932 39.9402 37.4932 40.28C37.4932 40.6198 37.7686 40.8952 38.1084 40.8952Z" fill="#3E4E87"/>
<path d="M39.5201 41.1847L38.5791 40.6781L38.6515 40.3885L39.5201 41.1847Z" fill="#3E4E87"/>
</g>
</g>
<defs>
<filter id="filter0_f_913_445" x="19.5" y="-77.5" width="127" height="155" filterUnits="userSpaceOnUse" color-interpolation-filters="sRGB">
<feFlood flood-opacity="0" result="BackgroundImageFix"/>
<feBlend mode="normal" in="SourceGraphic" in2="BackgroundImageFix" result="shape"/>
<feGaussianBlur stdDeviation="24.75" result="effect1_foregroundBlur_913_445"/>
</filter>
<filter id="filter1_f_913_445" x="-50.5" y="12.5" width="127" height="155" filterUnits="userSpaceOnUse" color-interpolation-filters="sRGB">
<feFlood flood-opacity="0" result="BackgroundImageFix"/>
<feBlend mode="normal" in="SourceGraphic" in2="BackgroundImageFix" result="shape"/>
<feGaussianBlur stdDeviation="24.75" result="effect1_foregroundBlur_913_445"/>
</filter>
<clipPath id="clip0_913_445">
<rect width="76" height="76" fill="white"/>
</clipPath>
</defs>
</svg>
