<svg width="35" height="36" viewBox="0 0 35 36" fill="none" xmlns="http://www.w3.org/2000/svg">
<rect y="0.5" width="35" height="35" rx="10" fill="#EFF2FB"/>
<path d="M23.9065 12.3669C23.7736 12.2982 23.6442 12.2229 23.5189 12.1413C23.1543 11.9003 22.8201 11.6164 22.5234 11.2956C21.781 10.4462 21.5038 9.58441 21.4016 8.98107H21.4057C21.3204 8.48027 21.3557 8.15625 21.361 8.15625H17.9797V21.2312C17.9797 21.4068 17.9797 21.5803 17.9723 21.7517C17.9723 21.773 17.9703 21.7927 17.969 21.8157C17.969 21.8251 17.969 21.835 17.967 21.8448V21.8522C17.9313 22.3213 17.781 22.7745 17.5291 23.1719C17.2772 23.5692 16.9315 23.8986 16.5224 24.131C16.0961 24.3736 15.6139 24.5008 15.1234 24.5002C13.548 24.5002 12.2711 23.2155 12.2711 21.6291C12.2711 20.0426 13.548 18.758 15.1234 18.758C15.4216 18.7577 15.718 18.8046 16.0015 18.897L16.0056 15.4542C15.1448 15.343 14.2704 15.4114 13.4374 15.6551C12.6044 15.8988 11.8309 16.3124 11.1658 16.87C10.583 17.3764 10.093 17.9806 9.71792 18.6554C9.57518 18.9015 9.03665 19.8904 8.97143 21.4954C8.93042 22.4063 9.20399 23.3501 9.33442 23.7401V23.7483C9.41645 23.978 9.73432 24.7618 10.2524 25.4226C10.6701 25.9526 11.1636 26.4182 11.717 26.8044V26.7962L11.7252 26.8044C13.3622 27.9168 15.1771 27.8438 15.1771 27.8438C15.4913 27.831 16.5437 27.8438 17.7389 27.2773C19.0646 26.6494 19.8192 25.7138 19.8192 25.7138C20.3014 25.1548 20.6848 24.5177 20.9529 23.83C21.2589 23.0256 21.361 22.061 21.361 21.6754V14.7388C21.402 14.7635 21.9484 15.1248 21.9484 15.1248C21.9484 15.1248 22.7355 15.6293 23.9635 15.9578C24.8445 16.1916 26.0315 16.2408 26.0315 16.2408V12.8841C25.6156 12.9292 24.7711 12.798 23.9065 12.3669Z" fill="#385AD2"/>
</svg>
